<svg xmlns="http://www.w3.org/2000/svg" width="46" height="46" fill="#7f7f7f" viewBox="0 0 46 46"><path fill-rule="evenodd" d="M22.465 6.176c-.214.16-.379.604-.707 1.493-1.203 3.249-1.804 4.874-2.686 6.283a16.158 16.158 0 0 1-5.12 5.12c-1.41.882-3.034 1.483-6.283 2.686-.89.329-1.333.493-1.493.708a.898.898 0 0 0 0 1.069c.16.214.604.379 1.493.708 3.25 1.202 4.874 1.803 6.283 2.686a16.16 16.16 0 0 1 5.12 5.12c.882 1.408 1.483 3.033 2.686 6.283.328.888.493 1.333.707 1.492a.898.898 0 0 0 1.07 0c.214-.16.379-.604.707-1.492 1.203-3.25 1.804-4.875 2.686-6.284a16.159 16.159 0 0 1 5.12-5.12c1.41-.882 3.034-1.483 6.283-2.685.89-.33 1.333-.494 1.493-.708a.898.898 0 0 0 0-1.07c-.16-.214-.604-.378-1.493-.707-3.25-1.203-4.874-1.804-6.283-2.686a16.157 16.157 0 0 1-5.12-5.12c-.882-1.41-1.483-3.034-2.686-6.283-.328-.89-.493-1.333-.707-1.493a.898.898 0 0 0-1.07 0Zm-.875 18.945c0 .109.088.196.196.196h1.794a.196.196 0 0 0 .196-.196c.004-.377.052-.694.144-.951a1.92 1.92 0 0 1 .433-.681c.196-.196.446-.384.75-.565a4.78 4.78 0 0 0 .94-.721c.265-.27.47-.577.617-.923.15-.35.225-.75.225-1.2 0-.673-.168-1.247-.502-1.724-.335-.477-.796-.84-1.384-1.09-.589-.254-1.265-.381-2.03-.381-.697 0-1.333.125-1.91.375a3.171 3.171 0 0 0-1.39 1.124c-.293.42-.47.933-.531 1.542a.335.335 0 0 0 .34.362h1.625c.204 0 .365-.164.413-.362a1.355 1.355 0 0 1 .731-.912c.223-.112.46-.168.71-.168.257 0 .492.054.703.161.216.108.387.262.514.462s.19.432.19.698c0 .25-.056.477-.167.68-.112.2-.262.383-.45.548a5.443 5.443 0 0 1-.64.479c-.32.2-.592.423-.82.67-.226.245-.4.568-.518.968-.116.4-.175.936-.18 1.61Zm.156 3.872c.273.27.601.404.986.404.246 0 .473-.061.68-.184.208-.127.375-.295.502-.502a1.323 1.323 0 0 0-.22-1.667 1.34 1.34 0 0 0-.962-.404c-.385 0-.713.135-.986.404-.27.269-.402.592-.398.969-.004.38.128.707.398.98Z" clip-rule="evenodd"/></svg>
