<svg width="1422" height="1422" viewBox="0 0 1422 1422" fill="none" xmlns="http://www.w3.org/2000/svg">
<g filter="url(#filter0_d_612_74)">
<mask id="mask0_612_74" style="mask-type:alpha" maskUnits="userSpaceOnUse" x="171" y="103" width="1080" height="1080">
<path fill-rule="evenodd" clip-rule="evenodd" d="M1246.18 715.367C1246.21 715.248 1246.23 715.132 1246.25 715.014C1211.05 979.237 984.818 1183 711 1183H355.935C287.378 1183 253.099 1183 227.486 1168.45C209.965 1158.51 195.471 1144 185.547 1126.46C171 1100.85 171 1066.57 171 998.014V643C171 354.428 397.334 118.734 682.164 103.619L685.955 103.464C686.31 103.446 686.662 103.427 687.017 103.408C689.634 103.269 692.27 103.129 694.905 103.129L699.29 103H712.058C716.235 103 720.414 103.077 724.594 103.232H726.914C730.293 103.335 733.62 103.464 736.974 103.619L741.822 103.877L749.278 104.341L754.744 104.754L761.503 105.373C765.475 105.76 769.447 106.173 773.392 106.611L777.623 107.101L785.491 108.159L789.075 108.571L797.355 109.835L799.727 110.222C809.546 111.838 819.279 113.73 828.925 115.896C829.305 115.999 829.684 116.102 830.063 116.206C1070.97 170.42 1251 385.672 1251 643C1251 667.202 1249.39 691.379 1246.18 715.367Z" fill="url(#paint0_linear_612_74)"/>
</mask>
<g mask="url(#mask0_612_74)">
<g filter="url(#filter1_diiii_612_74)">
<path d="M899.604 213.583C926.85 236.032 1055.53 305.538 1044.33 434.099C1023.44 673.769 612.711 764.314 650.416 915.824C669.185 991.245 788.933 1038.31 877.766 1042.91C1036.66 1051.24 1208.31 929.531 1254.93 734.29C1259.12 708.461 1261.22 682.429 1261.22 656.37C1261.22 379.129 1056.25 119.183 710.928 89.3721C782.953 137.4 846.223 169.573 899.604 213.583Z" fill="url(#paint1_linear_612_74)"/>
</g>
<g filter="url(#filter2_diiii_612_74)">
<path fill-rule="evenodd" clip-rule="evenodd" d="M1063.36 406.218C1109.8 493.872 1134.72 592.316 1134.72 693.33C1134.72 838.504 1084.27 971.898 999.94 1076.93C968.739 1086.78 936.957 1090.98 905.676 1089.01C817.907 1083.49 699.627 1027.13 681.048 936.802C663.502 851.27 744.255 781.993 836.754 702.643C929.695 622.913 1034.5 533.008 1063.36 406.218Z" fill="url(#paint2_linear_612_74)"/>
</g>
<g filter="url(#filter3_diiii_612_74)">
<path d="M742.836 910.197C757.937 983.837 828.732 1038.43 905.419 1067.68C947.163 998.158 973.96 920.702 984.092 840.247C994.225 759.795 987.478 678.112 964.275 600.413C840.273 708.363 719.674 797.422 742.836 910.197Z" fill="url(#paint3_linear_612_74)"/>
</g>
<g filter="url(#filter4_d_612_74)">
<path fill-rule="evenodd" clip-rule="evenodd" d="M708.771 1183H711.003C984.821 1183 1211.05 979.238 1246.26 715.016C1210.64 896.726 1078.91 1009.98 956.964 1002.3C888.846 998.016 797.048 954.269 782.629 884.165C769.01 817.783 831.684 764.019 903.473 702.433C936.81 673.835 972.113 643.548 1002.66 609.53H708.771V1183Z" fill="url(#paint4_linear_612_74)"/>
</g>
<g filter="url(#filter5_d_612_74)">
<path d="M956.963 1002.29C950.847 1001.91 944.537 1001.21 938.112 1000.2L475.589 948.702L543.647 731.14C543.647 442.568 397.336 118.734 682.166 103.619L685.957 103.464C688.922 103.31 691.915 103.129 694.907 103.129L699.292 103H708.423H712.06C716.237 103 720.416 103.077 724.596 103.232H726.917C730.295 103.335 733.622 103.464 736.976 103.619L741.825 103.877L749.28 104.341L754.747 104.754L761.506 105.373C765.477 105.76 769.449 106.173 773.394 106.611L777.625 107.101L785.493 108.159L789.077 108.571L797.358 109.835L799.729 110.222C809.548 111.838 819.281 113.73 828.927 115.896C890.958 132.662 944.403 161.782 985.336 202.715C1006.23 223.582 1093.28 316.9 1084.69 436.399C1068.67 659.173 753.716 743.23 782.628 884.163C795.753 947.973 872.98 989.943 938.112 1000.2L956.963 1002.29Z" fill="#C4C4C4"/>
</g>
<g filter="url(#filter6_ddii_612_74)">
<path d="M1246.25 715.014C1210.63 896.724 1078.91 1009.98 956.961 1002.29C888.843 998.014 843.345 966.921 828.925 896.817C800.013 755.884 1068.67 659.173 1084.69 436.399C1093.28 316.9 1006.23 223.582 985.333 202.715C944.401 161.782 890.956 132.662 828.925 115.896C819.279 113.73 809.546 111.838 799.727 110.222L797.355 109.835L789.075 108.571L785.491 108.159L777.623 107.101L773.392 106.611C769.447 106.173 765.475 105.76 761.503 105.373L754.745 104.754L749.278 104.341L741.822 103.877L736.974 103.619C733.62 103.464 730.293 103.335 726.914 103.232H724.594C720.414 103.077 716.235 103 712.058 103H708.421C705.352 103 702.309 103 699.29 103L694.905 103.129C691.913 103.129 688.92 103.31 685.955 103.464L682.164 103.619C397.334 118.734 171 354.428 171 643V998.014C171 1066.57 171 1100.85 185.547 1126.46C195.471 1143.99 209.965 1158.51 227.486 1168.45C253.099 1183 287.378 1183 355.935 1183H711C984.818 1183 1211.05 979.237 1246.25 715.014Z" fill="url(#paint5_radial_612_74)"/>
</g>
<path d="M1246.25 715.014C1210.63 896.724 1078.91 1009.98 956.961 1002.29C888.843 998.014 843.345 966.921 828.925 896.817C800.013 755.884 1068.67 659.173 1084.69 436.399C1093.28 316.9 1006.23 223.582 985.333 202.715C944.401 161.782 890.956 132.662 828.925 115.896C819.279 113.73 809.546 111.838 799.727 110.222L797.355 109.835L789.075 108.571L785.491 108.159L777.623 107.101L773.392 106.611C769.447 106.173 765.475 105.76 761.503 105.373L754.745 104.754L749.278 104.341L741.822 103.877L736.974 103.619C733.62 103.464 730.293 103.335 726.914 103.232H724.594C720.414 103.077 716.235 103 712.058 103H708.421C705.352 103 702.309 103 699.29 103L694.905 103.129C691.913 103.129 688.92 103.31 685.955 103.464L682.164 103.619C397.334 118.734 171 354.428 171 643V998.014C171 1066.57 171 1100.85 185.547 1126.46C195.471 1143.99 209.965 1158.51 227.486 1168.45C253.099 1183 287.378 1183 355.935 1183H711C984.818 1183 1211.05 979.237 1246.25 715.014Z" fill="url(#paint6_radial_612_74)"/>
</g>
</g>
<defs>
<filter id="filter0_d_612_74" x="0.653" y="0.791801" width="1420.69" height="1420.69" filterUnits="userSpaceOnUse" color-interpolation-filters="sRGB">
<feFlood flood-opacity="0" result="BackgroundImageFix"/>
<feColorMatrix in="SourceAlpha" type="matrix" values="0 0 0 0 0 0 0 0 0 0 0 0 0 0 0 0 0 0 127 0" result="hardAlpha"/>
<feOffset dy="68.1388"/>
<feGaussianBlur stdDeviation="85.1735"/>
<feComposite in2="hardAlpha" operator="out"/>
<feColorMatrix type="matrix" values="0 0 0 0 0 0 0 0 0 0 0 0 0 0 0 0 0 0 0.3 0"/>
<feBlend mode="normal" in2="BackgroundImageFix" result="effect1_dropShadow_612_74"/>
<feBlend mode="normal" in="SourceGraphic" in2="effect1_dropShadow_612_74" result="shape"/>
</filter>
<filter id="filter1_diiii_612_74" x="610.495" y="33.6615" width="664.353" height="1083.93" filterUnits="userSpaceOnUse" color-interpolation-filters="sRGB">
<feFlood flood-opacity="0" result="BackgroundImageFix"/>
<feColorMatrix in="SourceAlpha" type="matrix" values="0 0 0 0 0 0 0 0 0 0 0 0 0 0 0 0 0 0 127 0" result="hardAlpha"/>
<feOffset dy="13.6278"/>
<feGaussianBlur stdDeviation="6.81388"/>
<feComposite in2="hardAlpha" operator="out"/>
<feColorMatrix type="matrix" values="0 0 0 0 0 0 0 0 0 0 0 0 0 0 0 0 0 0 0.25 0"/>
<feBlend mode="normal" in2="BackgroundImageFix" result="effect1_dropShadow_612_74"/>
<feBlend mode="normal" in="SourceGraphic" in2="effect1_dropShadow_612_74" result="shape"/>
<feColorMatrix in="SourceAlpha" type="matrix" values="0 0 0 0 0 0 0 0 0 0 0 0 0 0 0 0 0 0 127 0" result="hardAlpha"/>
<feOffset dx="-37.4763"/>
<feGaussianBlur stdDeviation="37.1404"/>
<feComposite in2="hardAlpha" operator="arithmetic" k2="-1" k3="1"/>
<feColorMatrix type="matrix" values="0 0 0 0 1 0 0 0 0 1 0 0 0 0 1 0 0 0 1 0"/>
<feBlend mode="normal" in2="shape" result="effect2_innerShadow_612_74"/>
<feColorMatrix in="SourceAlpha" type="matrix" values="0 0 0 0 0 0 0 0 0 0 0 0 0 0 0 0 0 0 127 0" result="hardAlpha"/>
<feOffset dy="-55.7106"/>
<feGaussianBlur stdDeviation="37.1404"/>
<feComposite in2="hardAlpha" operator="arithmetic" k2="-1" k3="1"/>
<feColorMatrix type="matrix" values="0 0 0 0 0.8 0 0 0 0 0.13 0 0 0 0 0.3712 0 0 0 1 0"/>
<feBlend mode="normal" in2="effect2_innerShadow_612_74" result="effect3_innerShadow_612_74"/>
<feColorMatrix in="SourceAlpha" type="matrix" values="0 0 0 0 0 0 0 0 0 0 0 0 0 0 0 0 0 0 127 0" result="hardAlpha"/>
<feOffset dy="-18.5702"/>
<feGaussianBlur stdDeviation="12.9991"/>
<feComposite in2="hardAlpha" operator="arithmetic" k2="-1" k3="1"/>
<feColorMatrix type="matrix" values="0 0 0 0 0.7875 0 0 0 0 0.21 0 0 0 0 0.6258 0 0 0 0.85 0"/>
<feBlend mode="normal" in2="effect3_innerShadow_612_74" result="effect4_innerShadow_612_74"/>
<feColorMatrix in="SourceAlpha" type="matrix" values="0 0 0 0 0 0 0 0 0 0 0 0 0 0 0 0 0 0 127 0" result="hardAlpha"/>
<feOffset dy="74.2808"/>
<feGaussianBlur stdDeviation="74.2808"/>
<feComposite in2="hardAlpha" operator="arithmetic" k2="-1" k3="1"/>
<feColorMatrix type="matrix" values="0 0 0 0 0.916667 0 0 0 0 0.106944 0 0 0 0 0.495611 0 0 0 0.75 0"/>
<feBlend mode="normal" in2="effect4_innerShadow_612_74" result="effect5_innerShadow_612_74"/>
</filter>
<filter id="filter2_diiii_612_74" x="610.495" y="350.507" width="592.366" height="820.745" filterUnits="userSpaceOnUse" color-interpolation-filters="sRGB">
<feFlood flood-opacity="0" result="BackgroundImageFix"/>
<feColorMatrix in="SourceAlpha" type="matrix" values="0 0 0 0 0 0 0 0 0 0 0 0 0 0 0 0 0 0 127 0" result="hardAlpha"/>
<feOffset dy="13.6278"/>
<feGaussianBlur stdDeviation="34.0694"/>
<feComposite in2="hardAlpha" operator="out"/>
<feColorMatrix type="matrix" values="0 0 0 0 0 0 0 0 0 0 0 0 0 0 0 0 0 0 0.25 0"/>
<feBlend mode="normal" in2="BackgroundImageFix" result="effect1_dropShadow_612_74"/>
<feBlend mode="normal" in="SourceGraphic" in2="effect1_dropShadow_612_74" result="shape"/>
<feColorMatrix in="SourceAlpha" type="matrix" values="0 0 0 0 0 0 0 0 0 0 0 0 0 0 0 0 0 0 127 0" result="hardAlpha"/>
<feOffset dx="-18.5702"/>
<feGaussianBlur stdDeviation="37.1404"/>
<feComposite in2="hardAlpha" operator="arithmetic" k2="-1" k3="1"/>
<feColorMatrix type="matrix" values="0 0 0 0 1 0 0 0 0 0.92 0 0 0 0 0.2 0 0 0 1 0"/>
<feBlend mode="normal" in2="shape" result="effect2_innerShadow_612_74"/>
<feColorMatrix in="SourceAlpha" type="matrix" values="0 0 0 0 0 0 0 0 0 0 0 0 0 0 0 0 0 0 127 0" result="hardAlpha"/>
<feOffset dy="-55.7106"/>
<feGaussianBlur stdDeviation="37.1404"/>
<feComposite in2="hardAlpha" operator="arithmetic" k2="-1" k3="1"/>
<feColorMatrix type="matrix" values="0 0 0 0 0.8 0 0 0 0 0.2908 0 0 0 0 0.13 0 0 0 1 0"/>
<feBlend mode="normal" in2="effect2_innerShadow_612_74" result="effect3_innerShadow_612_74"/>
<feColorMatrix in="SourceAlpha" type="matrix" values="0 0 0 0 0 0 0 0 0 0 0 0 0 0 0 0 0 0 127 0" result="hardAlpha"/>
<feOffset dy="-18.5702"/>
<feGaussianBlur stdDeviation="12.9991"/>
<feComposite in2="hardAlpha" operator="arithmetic" k2="-1" k3="1"/>
<feColorMatrix type="matrix" values="0 0 0 0 1 0 0 0 0 1 0 0 0 0 1 0 0 0 0.5 0"/>
<feBlend mode="normal" in2="effect3_innerShadow_612_74" result="effect4_innerShadow_612_74"/>
<feColorMatrix in="SourceAlpha" type="matrix" values="0 0 0 0 0 0 0 0 0 0 0 0 0 0 0 0 0 0 127 0" result="hardAlpha"/>
<feOffset dy="74.2808"/>
<feGaussianBlur stdDeviation="74.2808"/>
<feComposite in2="hardAlpha" operator="arithmetic" k2="-1" k3="1"/>
<feColorMatrix type="matrix" values="0 0 0 0 1 0 0 0 0 1 0 0 0 0 1 0 0 0 0.38 0"/>
<feBlend mode="normal" in2="effect4_innerShadow_612_74" result="effect5_innerShadow_612_74"/>
</filter>
<filter id="filter3_diiii_612_74" x="671.82" y="544.702" width="384.985" height="604.742" filterUnits="userSpaceOnUse" color-interpolation-filters="sRGB">
<feFlood flood-opacity="0" result="BackgroundImageFix"/>
<feColorMatrix in="SourceAlpha" type="matrix" values="0 0 0 0 0 0 0 0 0 0 0 0 0 0 0 0 0 0 127 0" result="hardAlpha"/>
<feOffset dy="13.6278"/>
<feGaussianBlur stdDeviation="34.0694"/>
<feComposite in2="hardAlpha" operator="out"/>
<feColorMatrix type="matrix" values="0 0 0 0 0 0 0 0 0 0 0 0 0 0 0 0 0 0 0.25 0"/>
<feBlend mode="normal" in2="BackgroundImageFix" result="effect1_dropShadow_612_74"/>
<feBlend mode="normal" in="SourceGraphic" in2="effect1_dropShadow_612_74" result="shape"/>
<feColorMatrix in="SourceAlpha" type="matrix" values="0 0 0 0 0 0 0 0 0 0 0 0 0 0 0 0 0 0 127 0" result="hardAlpha"/>
<feOffset dx="-54.511"/>
<feGaussianBlur stdDeviation="37.1404"/>
<feComposite in2="hardAlpha" operator="arithmetic" k2="-1" k3="1"/>
<feColorMatrix type="matrix" values="0 0 0 0 1 0 0 0 0 0.475 0 0 0 0 0.6955 0 0 0 0.62 0"/>
<feBlend mode="normal" in2="shape" result="effect2_innerShadow_612_74"/>
<feColorMatrix in="SourceAlpha" type="matrix" values="0 0 0 0 0 0 0 0 0 0 0 0 0 0 0 0 0 0 127 0" result="hardAlpha"/>
<feOffset dy="-55.7106"/>
<feGaussianBlur stdDeviation="37.1404"/>
<feComposite in2="hardAlpha" operator="arithmetic" k2="-1" k3="1"/>
<feColorMatrix type="matrix" values="0 0 0 0 0.586528 0 0 0 0 0.199306 0 0 0 0 0.683333 0 0 0 1 0"/>
<feBlend mode="normal" in2="effect2_innerShadow_612_74" result="effect3_innerShadow_612_74"/>
<feColorMatrix in="SourceAlpha" type="matrix" values="0 0 0 0 0 0 0 0 0 0 0 0 0 0 0 0 0 0 127 0" result="hardAlpha"/>
<feOffset dy="-18.5702"/>
<feGaussianBlur stdDeviation="12.9991"/>
<feComposite in2="hardAlpha" operator="arithmetic" k2="-1" k3="1"/>
<feColorMatrix type="matrix" values="0 0 0 0 1 0 0 0 0 1 0 0 0 0 1 0 0 0 0.5 0"/>
<feBlend mode="normal" in2="effect3_innerShadow_612_74" result="effect4_innerShadow_612_74"/>
<feColorMatrix in="SourceAlpha" type="matrix" values="0 0 0 0 0 0 0 0 0 0 0 0 0 0 0 0 0 0 127 0" result="hardAlpha"/>
<feOffset dy="74.2808"/>
<feGaussianBlur stdDeviation="74.2808"/>
<feComposite in2="hardAlpha" operator="arithmetic" k2="-1" k3="1"/>
<feColorMatrix type="matrix" values="0 0 0 0 1 0 0 0 0 1 0 0 0 0 1 0 0 0 0.38 0"/>
<feBlend mode="normal" in2="effect4_innerShadow_612_74" result="effect5_innerShadow_612_74"/>
</filter>
<filter id="filter4_d_612_74" x="574.887" y="364.076" width="805.254" height="841.239" filterUnits="userSpaceOnUse" color-interpolation-filters="sRGB">
<feFlood flood-opacity="0" result="BackgroundImageFix"/>
<feColorMatrix in="SourceAlpha" type="matrix" values="0 0 0 0 0 0 0 0 0 0 0 0 0 0 0 0 0 0 127 0" result="hardAlpha"/>
<feOffset dy="-111.57"/>
<feGaussianBlur stdDeviation="66.9421"/>
<feColorMatrix type="matrix" values="0 0 0 0 0 0 0 0 0 0 0 0 0 0 0 0 0 0 0.1 0"/>
<feBlend mode="normal" in2="BackgroundImageFix" result="effect1_dropShadow_612_74"/>
<feBlend mode="normal" in="SourceGraphic" in2="effect1_dropShadow_612_74" result="shape"/>
</filter>
<filter id="filter5_d_612_74" x="341.705" y="-57.6612" width="966.719" height="1256.32" filterUnits="userSpaceOnUse" color-interpolation-filters="sRGB">
<feFlood flood-opacity="0" result="BackgroundImageFix"/>
<feColorMatrix in="SourceAlpha" type="matrix" values="0 0 0 0 0 0 0 0 0 0 0 0 0 0 0 0 0 0 127 0" result="hardAlpha"/>
<feOffset dx="44.6281" dy="17.8512"/>
<feGaussianBlur stdDeviation="89.2562"/>
<feColorMatrix type="matrix" values="0 0 0 0 0 0 0 0 0 0 0 0 0 0 0 0 0 0 0.25 0"/>
<feBlend mode="normal" in2="BackgroundImageFix" result="effect1_dropShadow_612_74"/>
<feBlend mode="normal" in="SourceGraphic" in2="effect1_dropShadow_612_74" result="shape"/>
</filter>
<filter id="filter6_ddii_612_74" x="0.653" y="-53.7192" width="1415.95" height="1420.69" filterUnits="userSpaceOnUse" color-interpolation-filters="sRGB">
<feFlood flood-opacity="0" result="BackgroundImageFix"/>
<feColorMatrix in="SourceAlpha" type="matrix" values="0 0 0 0 0 0 0 0 0 0 0 0 0 0 0 0 0 0 127 0" result="hardAlpha"/>
<feOffset dy="13.6278"/>
<feGaussianBlur stdDeviation="85.1735"/>
<feComposite in2="hardAlpha" operator="out"/>
<feColorMatrix type="matrix" values="0 0 0 0 0.346375 0 0 0 0 0.0619792 0 0 0 0 0.708333 0 0 0 0.5 0"/>
<feBlend mode="normal" in2="BackgroundImageFix" result="effect1_dropShadow_612_74"/>
<feColorMatrix in="SourceAlpha" type="matrix" values="0 0 0 0 0 0 0 0 0 0 0 0 0 0 0 0 0 0 127 0" result="hardAlpha"/>
<feOffset dy="-13.6278"/>
<feGaussianBlur stdDeviation="20.4416"/>
<feComposite in2="hardAlpha" operator="out"/>
<feColorMatrix type="matrix" values="0 0 0 0 0.253167 0 0 0 0 0.025 0 0 0 0 0.333333 0 0 0 0.2 0"/>
<feBlend mode="normal" in2="effect1_dropShadow_612_74" result="effect2_dropShadow_612_74"/>
<feBlend mode="normal" in="SourceGraphic" in2="effect2_dropShadow_612_74" result="shape"/>
<feColorMatrix in="SourceAlpha" type="matrix" values="0 0 0 0 0 0 0 0 0 0 0 0 0 0 0 0 0 0 127 0" result="hardAlpha"/>
<feOffset dy="74.9527"/>
<feGaussianBlur stdDeviation="39.1798"/>
<feComposite in2="hardAlpha" operator="arithmetic" k2="-1" k3="1"/>
<feColorMatrix type="matrix" values="0 0 0 0 0.0680556 0 0 0 0 0.212333 0 0 0 0 0.583333 0 0 0 0.25 0"/>
<feBlend mode="normal" in2="shape" result="effect3_innerShadow_612_74"/>
<feColorMatrix in="SourceAlpha" type="matrix" values="0 0 0 0 0 0 0 0 0 0 0 0 0 0 0 0 0 0 127 0" result="hardAlpha"/>
<feOffset dy="122.65"/>
<feGaussianBlur stdDeviation="97.0978"/>
<feComposite in2="hardAlpha" operator="arithmetic" k2="-1" k3="1"/>
<feColorMatrix type="matrix" values="0 0 0 0 1 0 0 0 0 1 0 0 0 0 1 0 0 0 0.25 0"/>
<feBlend mode="normal" in2="effect3_innerShadow_612_74" result="effect4_innerShadow_612_74"/>
</filter>
<linearGradient id="paint0_linear_612_74" x1="171" y1="103" x2="1246.54" y2="1183" gradientUnits="userSpaceOnUse">
<stop stop-color="#1963AC"/>
<stop offset="0.536458" stop-color="#0273B5"/>
<stop offset="0.869792" stop-color="#6666AC"/>
</linearGradient>
<linearGradient id="paint1_linear_612_74" x1="954.596" y1="89.3721" x2="954.596" y2="1043.32" gradientUnits="userSpaceOnUse">
<stop stop-color="#E89519"/>
<stop offset="1" stop-color="#E84B19"/>
</linearGradient>
<linearGradient id="paint2_linear_612_74" x1="906.678" y1="406.218" x2="906.678" y2="1089.49" gradientUnits="userSpaceOnUse">
<stop offset="0.338542" stop-color="#FFBF43"/>
<stop offset="1" stop-color="#FF7B43"/>
</linearGradient>
<linearGradient id="paint3_linear_612_74" x1="976.741" y1="888.3" x2="789.36" y2="890.003" gradientUnits="userSpaceOnUse">
<stop offset="0.255208" stop-color="#9050E0"/>
<stop offset="1" stop-color="#864AD1"/>
</linearGradient>
<linearGradient id="paint4_linear_612_74" x1="171.003" y1="103.001" x2="1246.54" y2="1183" gradientUnits="userSpaceOnUse">
<stop stop-color="#1963AC"/>
<stop offset="0.536458" stop-color="#0273B5"/>
<stop offset="0.869792" stop-color="#6666AC"/>
</linearGradient>
<radialGradient id="paint5_radial_612_74" cx="0" cy="0" r="1" gradientUnits="userSpaceOnUse" gradientTransform="translate(708.627 643) rotate(-89.9417) scale(657.54 1596.67)">
<stop stop-color="#3D52F7"/>
<stop offset="0.0001" stop-color="#3C4EF7"/>
<stop offset="0.911458" stop-color="#5CA1FE"/>
<stop offset="1" stop-color="#5B9DFE"/>
</radialGradient>
<radialGradient id="paint6_radial_612_74" cx="0" cy="0" r="1" gradientUnits="userSpaceOnUse" gradientTransform="translate(690.558 1183) rotate(-94.4248) scale(861.116 1481.79)">
<stop stop-color="#3643B7"/>
<stop offset="1" stop-color="#1939AC" stop-opacity="0"/>
</radialGradient>
</defs>
</svg>
